{
	"asset":{
		"generator":"Khronos glTF Blender I/O v4.2.60",
		"version":"2.0"
	},
	"extensionsUsed":[
		"KHR_materials_clearcoat",
		"KHR_materials_specular"
	],
	"scene":0,
	"scenes":[
		{
			"name":"Scene",
			"nodes":[
				0
			]
		}
	],
	"nodes":[
		{
			"mesh":0,
			"name":"Violin.001",
			"rotation":[
				0.5,
				0.5,
				-0.5,
				0.5000000596046448
			],
			"scale":[
				12.936027526855469,
				12.936027526855469,
				12.936027526855469
			],
			"translation":[
				-2.5768675804138184,
				3.3804049491882324,
				0.10382652282714844
			]
		}
	],
	"materials":[
		{
			"doubleSided":true,
			"extensions":{
				"KHR_materials_clearcoat":{
					"clearcoatRoughnessFactor":1,
					"clearcoatRoughnessTexture":{
						"index":0
					},
					"clearcoatNormalTexture":{
						"index":1
					}
				},
				"KHR_materials_specular":{
					"specularFactor":0
				}
			},
			"name":"defaultMat",
			"pbrMetallicRoughness":{
				"baseColorTexture":{
					"index":2
				},
				"metallicRoughnessTexture":{
					"index":3
				}
			}
		}
	],
	"meshes":[
		{
			"name":"Mesh_2.001",
			"primitives":[
				{
					"attributes":{
						"POSITION":0,
						"NORMAL":1,
						"TEXCOORD_0":2
					},
					"indices":3,
					"material":0
				}
			]
		}
	],
	"textures":[
		{
			"sampler":0,
			"source":0
		},
		{
			"sampler":0,
			"source":1
		},
		{
			"sampler":0,
			"source":2
		},
		{
			"sampler":0,
			"source":3
		}
	],
	"images":[
		{
			"mimeType":"image/png",
			"name":"MT_E_3270_Skrzypce_8_FIN2_defaultMat_Roughness_8K",
			"uri":"MT_E_3270_Skrzypce_8_FIN2_defaultMat_Roughness_8K.png"
		},
		{
			"mimeType":"image/png",
			"name":"MT_E_3270_Skrzypce_8_FIN2_defaultMat_Normal_8K",
			"uri":"MT_E_3270_Skrzypce_8_FIN2_defaultMat_Normal_8K.png"
		},
		{
			"mimeType":"image/png",
			"name":"MT_E_3270_Skrzypce_8_FIN2_defaultMat_BaseColor_8K",
			"uri":"MT_E_3270_Skrzypce_8_FIN2_defaultMat_BaseColor_8K.png"
		},
		{
			"mimeType":"image/png",
			"name":"MT_E_3270_Skrzypce_8_FIN2_defaultMat_Metallic_8K",
			"uri":"MT_E_3270_Skrzypce_8_FIN2_defaultMat_Metallic_8K.png"
		}
	],
	"accessors":[
		{
			"bufferView":0,
			"componentType":5126,
			"count":196445,
			"max":[
				0.430092990398407,
				0.28317001461982727,
				0.03414729982614517
			],
			"min":[
				-0.18102599680423737,
				0.21580100059509277,
				0.02740819938480854
			],
			"type":"VEC3"
		},
		{
			"bufferView":1,
			"componentType":5126,
			"count":196445,
			"type":"VEC3"
		},
		{
			"bufferView":2,
			"componentType":5126,
			"count":196445,
			"type":"VEC2"
		},
		{
			"bufferView":3,
			"componentType":5125,
			"count":553590,
			"type":"SCALAR"
		}
	],
	"bufferViews":[
		{
			"buffer":0,
			"byteLength":2357340,
			"byteOffset":0,
			"target":34962
		},
		{
			"buffer":0,
			"byteLength":2357340,
			"byteOffset":2357340,
			"target":34962
		},
		{
			"buffer":0,
			"byteLength":1571560,
			"byteOffset":4714680,
			"target":34962
		},
		{
			"buffer":0,
			"byteLength":2214360,
			"byteOffset":6286240,
			"target":34963
		}
	],
	"samplers":[
		{
			"magFilter":9729,
			"minFilter":9987
		}
	],
	"buffers":[
		{
			"byteLength":8500600,
			"uri":"violin2.bin"
		}
	]
}
