{
	"asset":{
		"generator":"Khronos glTF Blender I/O v4.2.60",
		"version":"2.0"
	},
	"extensionsUsed":[
		"KHR_materials_clearcoat",
		"KHR_materials_specular"
	],
	"scene":0,
	"scenes":[
		{
			"name":"Scene",
			"nodes":[
				0
			]
		}
	],
	"nodes":[
		{
			"mesh":0,
			"name":"Violin",
			"rotation":[
				-0.5,
				-0.5,
				0.5,
				0.5
			],
			"scale":[
				12.936027526855469,
				12.936027526855469,
				12.936027526855469
			],
			"translation":[
				0,
				1.9190360307693481,
				1.223556637763977
			]
		}
	],
	"materials":[
		{
			"doubleSided":true,
			"extensions":{
				"KHR_materials_clearcoat":{
					"clearcoatRoughnessFactor":1,
					"clearcoatRoughnessTexture":{
						"index":0
					},
					"clearcoatNormalTexture":{
						"index":1
					}
				},
				"KHR_materials_specular":{
					"specularFactor":0
				}
			},
			"name":"defaultMat",
			"pbrMetallicRoughness":{
				"baseColorTexture":{
					"index":2
				},
				"metallicRoughnessTexture":{
					"index":3
				}
			}
		}
	],
	"meshes":[
		{
			"name":"Mesh_2",
			"primitives":[
				{
					"attributes":{
						"POSITION":0,
						"NORMAL":1,
						"TEXCOORD_0":2
					},
					"indices":3,
					"material":0
				}
			]
		}
	],
	"textures":[
		{
			"sampler":0,
			"source":0
		},
		{
			"sampler":0,
			"source":1
		},
		{
			"sampler":0,
			"source":2
		},
		{
			"sampler":0,
			"source":3
		}
	],
	"images":[
		{
			"mimeType":"image/png",
			"name":"MT_E_3270_Skrzypce_8_FIN2_defaultMat_Roughness_8K",
			"uri":"MT_E_3270_Skrzypce_8_FIN2_defaultMat_Roughness_8K.png"
		},
		{
			"mimeType":"image/png",
			"name":"MT_E_3270_Skrzypce_8_FIN2_defaultMat_Normal_8K",
			"uri":"MT_E_3270_Skrzypce_8_FIN2_defaultMat_Normal_8K.png"
		},
		{
			"mimeType":"image/png",
			"name":"MT_E_3270_Skrzypce_8_FIN2_defaultMat_BaseColor_8K",
			"uri":"MT_E_3270_Skrzypce_8_FIN2_defaultMat_BaseColor_8K.png"
		},
		{
			"mimeType":"image/png",
			"name":"MT_E_3270_Skrzypce_8_FIN2_defaultMat_Metallic_8K",
			"uri":"MT_E_3270_Skrzypce_8_FIN2_defaultMat_Metallic_8K.png"
		}
	],
	"accessors":[
		{
			"bufferView":0,
			"componentType":5126,
			"count":330476,
			"max":[
				0.3972499966621399,
				0.18670600652694702,
				0.03619369864463806
			],
			"min":[
				-0.15306200087070465,
				0.00016233000496868044,
				-0.048760298639535904
			],
			"type":"VEC3"
		},
		{
			"bufferView":1,
			"componentType":5126,
			"count":330476,
			"type":"VEC3"
		},
		{
			"bufferView":2,
			"componentType":5126,
			"count":330476,
			"type":"VEC2"
		},
		{
			"bufferView":3,
			"componentType":5125,
			"count":826032,
			"type":"SCALAR"
		}
	],
	"bufferViews":[
		{
			"buffer":0,
			"byteLength":3965712,
			"byteOffset":0,
			"target":34962
		},
		{
			"buffer":0,
			"byteLength":3965712,
			"byteOffset":3965712,
			"target":34962
		},
		{
			"buffer":0,
			"byteLength":2643808,
			"byteOffset":7931424,
			"target":34962
		},
		{
			"buffer":0,
			"byteLength":3304128,
			"byteOffset":10575232,
			"target":34963
		}
	],
	"samplers":[
		{
			"magFilter":9729,
			"minFilter":9987
		}
	],
	"buffers":[
		{
			"byteLength":13879360,
			"uri":"violin1.bin"
		}
	]
}
